<?xml version="1.0" encoding="utf-8"?>
<!-- Generator: Adobe Illustrator 22.0.0, SVG Export Plug-In . SVG Version: 6.00 Build 0)  -->
<svg version="1.1" id="Layer_1" xmlns="http://www.w3.org/2000/svg" xmlns:xlink="http://www.w3.org/1999/xlink" x="0px" y="0px"
	 viewBox="0 0 190.4 215.2" style="enable-background:new 0 0 190.4 215.2;" xml:space="preserve">
<style type="text/css">
	.st0{fill:#5E464D;}
	.st1{fill:#E4A663;}
	.st2{fill:#FFFFFF;}
</style>
<g>
	<path class="st0" d="M103.9,213c-4.8,2.7-12.5,2.7-17.3,0L8.7,168c-4.8-2.8-8.7-9.5-8.7-15L0,63.1c0-5.5,3.9-12.2,8.6-15L86.4,3.2
		c4.8-2.7,12.5-2.7,17.3,0l77.9,45c4.8,2.8,8.7,9.5,8.7,15l0.1,89.9c0,5.5-3.9,12.2-8.6,15L103.9,213z"/>
	<path class="st1" d="M165.4,161.4c2.2,0,3-0.5,4.1-2.3c1.1-1.8,0.6-4.7,0.5-5.5c-0.1-1.8-0.7-3.7-0.8-4.7c0-0.6,0-4.4,0.1-6
		c1.3-24.8,12-30.7,15.1-31.4c3.8-0.8,5.4,0.3,5.9,0.4l0-38c0,0,0,0,0,0l0-0.5l0-10.1c0-5.5-3.9-12.2-8.7-15l-77.9-45
		c-4.8-2.8-12.5-2.8-17.3,0L8.7,48.1C3.9,50.8,0,57.6,0,63.1l0,9.8c0,0.1,0,0.1,0,0.2l0,14.4c0.5,0.3,0.9,0.5,1.4,0.8
		c1.5,1,3,1.5,4.5,2.6c2.4,1.7,6.2,3.7,12,9.3c0.7,0.7,3.1,3.7,3.6,4.4c1.9,2.3,3.5,4.7,5.8,6.6c1.3,1.1,2.5,2.1,3.9,2.8
		c2.3,1.2,6.1,0.9,8,0.1c14.8-6.4,24.1-3.2,28.4-0.6c10.6,6.4,14.2,15.3,15.3,26.1c0.2,2.3,0.1,3.5,0.1,4.2c0,2.6-0.1,6.7,2.6,7.4
		c3.9,1,4.8-3.2,5.4-5.9c1.3-6.2,9.6-10.3,15.7-7.2c4.2,2.2,5.9,3.4,10.1,1.6c5.2-2.3,7.9-8.1,9.7-11.2c3-5.1,7.2-6.9,7.5-7.1
		c8.1-5.1,28.5-3.7,29.2,18.7c0,1.2,0,4.3,0,6.2c0,2.1,0.1,4.2-0.1,6.4c-0.1,1.5-0.4,3-0.5,4.5C162.6,157,161.8,161.4,165.4,161.4z"
		/>
	<path class="st2" d="M105,100.8c-5.4,3.1-14.2,3.1-19.6,0l-79.6-42c0.9,0.9,1.9,1.7,2.9,2.2l77.9,45c4.8,2.8,12.5,2.8,17.3,0
		l77.8-44.9c1-0.6,2-1.3,2.9-2.2L105,100.8z"/>
	<path class="st2" d="M85.3,9.2c5.4-3.1,14.2-3.1,19.6,0l9.7,4c-0.9-0.9-1.9-1.7-2.9-2.2l-7.9-5.1c-4.8-2.8-12.5-2.8-17.3,0
		l-13.8,7.9c-1,0.6-2,1.3-2.9,2.2L85.3,9.2z"/>
</g>
</svg>
