<svg xmlns="http://www.w3.org/2000/svg" width="92" height="88" viewBox="0 0 92 88">
  <path fill="#000000" d="M22.6,0.65 C15.6987261,0.655514405 10.1055144,6.24872606 10.1,13.15 L10.1,59.33 C10.1,60.7107119 11.2192881,61.83 12.6,61.83 C13.9807119,61.83 15.1,60.7107119 15.1,59.33 L15.1,13.15 C15.1055088,9.01014834 18.4601483,5.65550879 22.6,5.65 L69.49,5.65 C67.888619,7.76711937 67.0151278,10.3454969 67,13 L67,75 C67,79.0786229 63.6936229,82.385 59.615,82.385 C55.5363771,82.385 52.23,79.0786229 52.23,75 L52.23,68.15 C52.23,66.7692881 51.1107119,65.65 49.73,65.65 L2.73,65.65 C1.34928813,65.65 0.23,66.7692881 0.23,68.15 L0.23,75 C0.257468743,81.8171077 5.78285678,87.3335622 12.6,87.35 L59.6,87.35 C66.4288521,87.3500555 71.9724643,81.8287966 72,75 L72,13 C72,8.92137712 75.3063771,5.615 79.385,5.615 C83.4636229,5.615 86.77,8.92137712 86.77,13 L86.77,17.31 L79.72,17.31 C78.3392881,17.31 77.22,18.4292881 77.22,19.81 C77.22,21.1907119 78.3392881,22.31 79.72,22.31 L89.28,22.31 C90.6607119,22.31 91.78,21.1907119 91.78,19.81 L91.78,13 C91.7525045,6.1789998 86.2210468,0.660946286 79.4,0.65 L22.6,0.65 Z M12.6,82.35 C8.53418578,82.3500596 5.23200711,79.0657547 5.21,75 L5.21,70.65 L47.21,70.65 L47.21,75 C47.2085532,77.6599818 48.0680484,80.2489919 49.66,82.38 L12.6,82.35 Z M43.67,19.43 C43.67,18.0492881 44.7892881,16.93 46.17,16.93 L57.94,16.93 C59.3207119,16.93 60.44,18.0492881 60.44,19.43 C60.44,20.8107119 59.3207119,21.93 57.94,21.93 L46.17,21.93 C45.5052225,21.9300053 44.8678176,21.6652409 44.3986881,21.194235 C43.9295586,20.723229 43.6673409,20.0847722 43.67,19.42 L43.67,19.43 Z M33.8000031,54.6900954 C33.8000031,53.7566815 34.5566846,53 35.4900985,53 L58.3199076,53 C59.2533216,53 60.0100031,53.7566815 60.0100031,54.6900954 C60.0100031,55.6235094 59.2533216,56.3801909 58.3199076,56.3801909 L35.4900985,56.3801909 C34.5619393,56.3802206 33.8074283,55.6317456 33.8000031,54.7036162 L33.8000031,54.6900954 Z M20,30 C20,29.4477153 20.4492188,29 21.0087752,29 L58.9912248,29 C59.548356,29 60,29.4438648 60,30 C60,30.5522847 59.5507812,31 58.9912248,31 L21.0087752,31 C20.451644,31 20,30.5561352 20,30 Z M20,34 C20,33.4477153 20.4492188,33 21.0087752,33 L58.9912248,33 C59.548356,33 60,33.4438648 60,34 C60,34.5522847 59.5507812,35 58.9912248,35 L21.0087752,35 C20.451644,35 20,34.5561352 20,34 Z M20,38 C20,37.4477153 20.4492188,37 21.0087752,37 L58.9912248,37 C59.548356,37 60,37.4438648 60,38 C60,38.5522847 59.5507812,39 58.9912248,39 L21.0087752,39 C20.451644,39 20,38.5561352 20,38 Z M20,42 C20,41.4477153 20.4492188,41 21.0087752,41 L58.9912248,41 C59.548356,41 60,41.4438648 60,42 C60,42.5522847 59.5507812,43 58.9912248,43 L21.0087752,43 C20.451644,43 20,42.5561352 20,42 Z M20,46 C20,45.4477153 20.4492188,45 21.0087752,45 L58.9912248,45 C59.548356,45 60,45.4438648 60,46 C60,46.5522847 59.5507812,47 58.9912248,47 L21.0087752,47 C20.451644,47 20,46.5561352 20,46 Z"/>
</svg>
