<?xml version="1.0" encoding="utf-8"?>
<!-- Generator: Adobe Illustrator 21.1.0, SVG Export Plug-In . SVG Version: 6.00 Build 0)  -->
<svg version="1.1" id="Layer_1" xmlns="http://www.w3.org/2000/svg" xmlns:xlink="http://www.w3.org/1999/xlink" x="0px" y="0px"
	 viewBox="0 0 46 46" style="enable-background:new 0 0 46 46;" xml:space="preserve">
<style type="text/css">
	.st0{fill:none;stroke:#808080;stroke-width:2;stroke-linecap:round;stroke-linejoin:round;}
</style>
<g transform="translate(1 1)">
	<g transform="translate(12 12)">
		<path class="st0" d="M10.4,8c1.3,0,2.4,1.1,2.4,2.4s-1.1,2.4-2.4,2.4S8,11.7,8,10.4S9.1,8,10.4,8L10.4,8z"/>
		<path class="st0" d="M21,12.2V8.2h-3.1c-0.1-0.5-0.4-1.1-0.7-1.6l2.2-2.1l-2.9-2.9l-2.2,2.1c-0.5-0.3-1.1-0.5-1.7-0.7V0H8.4v3
			C7.8,3.1,7.3,3.4,6.7,3.7L4.6,1.6L1.6,4.4l2.2,2.1C3.5,7,3.3,7.5,3.1,8.2H0v4.1h3.1c0.1,0.5,0.4,1.1,0.7,1.6L1.6,16l2.9,2.9
			l2.2-2.1c0.5,0.3,1.1,0.5,1.7,0.7v3h4.2v-3c0.6-0.1,1.1-0.4,1.7-0.7l2.2,2.1l2.9-2.9l-2.2-2.1c0.3-0.5,0.5-1,0.7-1.6H21L21,12.2z"
			/>
	</g>
</g>
</svg>
