<svg width="46" height="46" viewBox="0 0 46 46" xmlns="http://www.w3.org/2000/svg"><g transform="translate(1 1)" stroke-width="2" fill="none" fill-rule="evenodd"><g stroke="gray" stroke-linecap="round" stroke-linejoin="round"><path d="M30.182 26.545c-1.722-.192-4.463-.91-8.182-.91-3.72 0-6.46.718-8.182.91-1.072.836-1.818 1.93-1.818 2.728v3.636h20v-3.637c0-.798-.746-1.892-1.818-2.728zM17.455 18.364v-1.82c0-2.407 2.238-4.544 5.454-4.544 2.306 0 4.545 2.137 4.545 4.545v1.82c0 2.407-2.24 4.544-4.546 4.544-3.217 0-5.455-2.138-5.455-4.546z"/></g><circle stroke="#979797" cx="22" cy="22" r="22"/></g></svg>
