<svg version="1.1" xmlns="http://www.w3.org/2000/svg" xmlns:xlink="http://www.w3.org/1999/xlink" x="0px" y="0px" width="64px" height="64px" viewBox="0 0 64 64" enable-background="new 0 0 64 64" xml:space="preserve" stroke-width="2"><g stroke-width="2" transform="translate(0, 0)"><line data-cap="butt" color="color-2" fill="none" stroke="#444444" stroke-width="2" stroke-miterlimit="10" x1="2" y1="34" x2="10" y2="34" stroke-linejoin="miter" stroke-linecap="butt"></line> <line data-cap="butt" color="color-2" fill="none" stroke="#444444" stroke-width="2" stroke-miterlimit="10" x1="10" y1="10" x2="16.6" y2="16.6" stroke-linejoin="miter" stroke-linecap="butt"></line> <line data-cap="butt" color="color-2" fill="none" stroke="#444444" stroke-width="2" stroke-miterlimit="10" x1="54" y1="10" x2="47.4" y2="16.6" stroke-linejoin="miter" stroke-linecap="butt"></line> <line data-cap="butt" color="color-2" fill="none" stroke="#444444" stroke-width="2" stroke-miterlimit="10" x1="8" y1="60" x2="15.3" y2="52.7" stroke-linejoin="miter" stroke-linecap="butt"></line> <line data-cap="butt" color="color-2" fill="none" stroke="#444444" stroke-width="2" stroke-miterlimit="10" x1="56" y1="60" x2="48.7" y2="52.7" stroke-linejoin="miter" stroke-linecap="butt"></line> <line data-cap="butt" color="color-2" fill="none" stroke="#444444" stroke-width="2" stroke-miterlimit="10" x1="54" y1="34" x2="62" y2="34" stroke-linejoin="miter" stroke-linecap="butt"></line> <line data-cap="butt" color="color-2" fill="none" stroke="#444444" stroke-width="2" stroke-miterlimit="10" x1="24.8" y1="6.8" x2="20" y2="2" stroke-linejoin="miter" stroke-linecap="butt"></line> <line data-cap="butt" color="color-2" fill="none" stroke="#444444" stroke-width="2" stroke-miterlimit="10" x1="39.2" y1="6.8" x2="44" y2="2" stroke-linejoin="miter" stroke-linecap="butt"></line> <path data-cap="butt" fill="none" stroke="#444444" stroke-width="2" stroke-miterlimit="10" d="M42,12c7.1,4.4,12,13.3,12,23.6 C54,50.2,44.2,62,32,62S10,50.2,10,35.6c0-10.3,4.9-19.2,12-23.5" stroke-linejoin="miter" stroke-linecap="butt"></path> <line data-cap="butt" fill="none" stroke="#444444" stroke-width="2" stroke-miterlimit="10" x1="32" y1="16" x2="32" y2="62" stroke-linejoin="miter" stroke-linecap="butt"></line> <circle color="color-2" fill="none" stroke="#444444" stroke-width="2" stroke-linecap="square" stroke-miterlimit="10" cx="22" cy="26" r="4" stroke-linejoin="miter"></circle> <circle color="color-2" fill="none" stroke="#444444" stroke-width="2" stroke-linecap="square" stroke-miterlimit="10" cx="42" cy="26" r="4" stroke-linejoin="miter"></circle> <circle color="color-2" fill="none" stroke="#444444" stroke-width="2" stroke-linecap="square" stroke-miterlimit="10" cx="21" cy="41" r="5" stroke-linejoin="miter"></circle> <circle color="color-2" fill="none" stroke="#444444" stroke-width="2" stroke-linecap="square" stroke-miterlimit="10" cx="43" cy="41" r="5" stroke-linejoin="miter"></circle> <path fill="none" stroke="#444444" stroke-width="2" stroke-linecap="square" stroke-miterlimit="10" d="M32,4 c-5.2,0-9.4,3.7-10.1,8.4c0,0,5.1,3.7,10.1,3.7s10.1-3.6,10.1-3.7C41.4,7.7,37.2,4,32,4z" stroke-linejoin="miter"></path></g></svg>
