<svg xmlns="http://www.w3.org/2000/svg" xmlns:xlink="http://www.w3.org/1999/xlink" width="64" height="64" x="0" y="0" stroke-width="2" enable-background="new 0 0 64 64" version="1.1" viewBox="0 0 64 64" xml:space="preserve"><g stroke-width="2" transform="translate(0, 0)"><line x1="2" x2="10" y1="34" y2="34" fill="none" stroke="#444" stroke-linecap="butt" stroke-linejoin="miter" stroke-miterlimit="10" stroke-width="2" color="color-2" data-cap="butt"/><line x1="10" x2="16.6" y1="10" y2="16.6" fill="none" stroke="#444" stroke-linecap="butt" stroke-linejoin="miter" stroke-miterlimit="10" stroke-width="2" color="color-2" data-cap="butt"/><line x1="54" x2="47.4" y1="10" y2="16.6" fill="none" stroke="#444" stroke-linecap="butt" stroke-linejoin="miter" stroke-miterlimit="10" stroke-width="2" color="color-2" data-cap="butt"/><line x1="8" x2="15.3" y1="60" y2="52.7" fill="none" stroke="#444" stroke-linecap="butt" stroke-linejoin="miter" stroke-miterlimit="10" stroke-width="2" color="color-2" data-cap="butt"/><line x1="56" x2="48.7" y1="60" y2="52.7" fill="none" stroke="#444" stroke-linecap="butt" stroke-linejoin="miter" stroke-miterlimit="10" stroke-width="2" color="color-2" data-cap="butt"/><line x1="54" x2="62" y1="34" y2="34" fill="none" stroke="#444" stroke-linecap="butt" stroke-linejoin="miter" stroke-miterlimit="10" stroke-width="2" color="color-2" data-cap="butt"/><line x1="24.8" x2="20" y1="6.8" y2="2" fill="none" stroke="#444" stroke-linecap="butt" stroke-linejoin="miter" stroke-miterlimit="10" stroke-width="2" color="color-2" data-cap="butt"/><line x1="39.2" x2="44" y1="6.8" y2="2" fill="none" stroke="#444" stroke-linecap="butt" stroke-linejoin="miter" stroke-miterlimit="10" stroke-width="2" color="color-2" data-cap="butt"/><path fill="none" stroke="#444" stroke-linecap="butt" stroke-linejoin="miter" stroke-miterlimit="10" stroke-width="2" d="M42,12c7.1,4.4,12,13.3,12,23.6 C54,50.2,44.2,62,32,62S10,50.2,10,35.6c0-10.3,4.9-19.2,12-23.5" data-cap="butt"/><line x1="32" x2="32" y1="16" y2="62" fill="none" stroke="#444" stroke-linecap="butt" stroke-linejoin="miter" stroke-miterlimit="10" stroke-width="2" data-cap="butt"/><circle cx="22" cy="26" r="4" fill="none" stroke="#444" stroke-linecap="square" stroke-linejoin="miter" stroke-miterlimit="10" stroke-width="2" color="color-2"/><circle cx="42" cy="26" r="4" fill="none" stroke="#444" stroke-linecap="square" stroke-linejoin="miter" stroke-miterlimit="10" stroke-width="2" color="color-2"/><circle cx="21" cy="41" r="5" fill="none" stroke="#444" stroke-linecap="square" stroke-linejoin="miter" stroke-miterlimit="10" stroke-width="2" color="color-2"/><circle cx="43" cy="41" r="5" fill="none" stroke="#444" stroke-linecap="square" stroke-linejoin="miter" stroke-miterlimit="10" stroke-width="2" color="color-2"/><path fill="none" stroke="#444" stroke-linecap="square" stroke-linejoin="miter" stroke-miterlimit="10" stroke-width="2" d="M32,4 c-5.2,0-9.4,3.7-10.1,8.4c0,0,5.1,3.7,10.1,3.7s10.1-3.6,10.1-3.7C41.4,7.7,37.2,4,32,4z"/></g></svg>