<svg xmlns="http://www.w3.org/2000/svg" viewBox="0 0 21 21"><title>chain-icon</title><g id="Layer_2"><g id="Layer_1-2"><path d="M15,10.42a6.2,6.2,0,0,1,0,3.2,6,6,0,0,1-1.6,2.79L10.62,19.2a5.93,5.93,0,0,1-2.79,1.59,6.2,6.2,0,0,1-3.2,0,6,6,0,0,1-2.8-1.62,6,6,0,0,1-1.62-2.8,6.2,6.2,0,0,1,0-3.2A5.93,5.93,0,0,1,1.8,10.38L3.36,8.82A.57.57,0,0,1,4,8.7a.65.65,0,0,1,.43.57,7.37,7.37,0,0,0,.41,2.17.61.61,0,0,1-.16.66l-.54.57a3,3,0,0,0-.88,2.08,2.94,2.94,0,0,0,2.93,3,2.89,2.89,0,0,0,2.1-.86l2.74-2.75a2.95,2.95,0,0,0,0-4.18,2.34,2.34,0,0,0-.45-.37.57.57,0,0,1-.24-.5,1.53,1.53,0,0,1,.45-1.23l.9-.86a.59.59,0,0,1,.39-.18.67.67,0,0,1,.43.1,9.72,9.72,0,0,1,.86.7A6.14,6.14,0,0,1,15,10.42ZM16.37.21a6.2,6.2,0,0,0-3.2,0A5.93,5.93,0,0,0,10.38,1.8L7.59,4.59A6,6,0,0,0,6,7.38a6.2,6.2,0,0,0,0,3.2,6.14,6.14,0,0,0,1.6,2.83,9.72,9.72,0,0,0,.86.7.67.67,0,0,0,.43.1A.59.59,0,0,0,9.27,14l.9-.86a1.53,1.53,0,0,0,.45-1.23.57.57,0,0,0-.24-.5,2.34,2.34,0,0,1-.45-.37A2.82,2.82,0,0,1,9.06,9a2.82,2.82,0,0,1,.87-2.09l2.74-2.75a2.89,2.89,0,0,1,2.1-.86,2.94,2.94,0,0,1,2.93,3,3,3,0,0,1-.88,2.08l-.54.57a.61.61,0,0,0-.16.66,7.37,7.37,0,0,1,.41,2.17.65.65,0,0,0,.43.57.57.57,0,0,0,.68-.12l1.56-1.56a5.93,5.93,0,0,0,1.59-2.79,6.2,6.2,0,0,0,0-3.2A6.31,6.31,0,0,0,19.2,1.8,6.26,6.26,0,0,0,16.37.21Z"/></g></g></svg>