<svg viewBox="0 0 46 46" version="1.1" xmlns="http://www.w3.org/2000/svg" xmlns:xlink="http://www.w3.org/1999/xlink" xml:space="preserve" xmlns:serif="http://www.serif.com/" >
    <circle cx="23" cy="23" r="22" style="fill:none;stroke:rgb(151,151,151);stroke-width:2px;"/>
    <g id="handshake" transform="matrix(0.0445313,0,0,0.0445313,23,23.5)" >
        <g transform="matrix(1,0,0,1,-320,-256)">
            <clipPath id="_clip1">
                <rect x="0" y="0" width="640" height="512"/>
            </clipPath>
            <g clip-path="url(#_clip1)">
                <path d="M519.2,127.9L471.6,80.3C461.069,69.862 446.827,64 432,64L205.2,64C190.4,64 176.1,69.9 165.6,80.3L118,127.9L0,127.9L0,383.6L64,383.6C81.6,383.6 95.8,369.4 95.9,351.9L105,351.9L189.6,428.3C220.5,453.4 263.4,454 295.2,432.1C307.7,442.9 321.2,448 336.3,448C354.5,448 371.6,440.6 385.1,424C407.2,432.7 433.3,426.6 449.1,407.2L475.3,374.9C480.9,368 484.4,360.1 486.2,351.9L544.1,351.9C544.2,369.4 558.5,383.6 576,383.6L640,383.6L640,127.9L519.2,127.9ZM48,351.6C39.2,351.6 32,344.4 32,335.6C32,326.8 39.2,319.6 48,319.6C56.8,319.6 64,326.8 64,335.6C64,344.5 56.8,351.6 48,351.6ZM438,344.7L411.9,376.9C409.1,380.3 404.1,380.9 400.6,378.1L376.7,358.7L346.7,395.2C340.7,402.5 331.7,400 328.7,397.6L291.9,366.1L276.3,385.3C262.4,402.4 237.1,405 221,391.9L123.7,303.9L96,303.9L96,175.8L137.9,175.8L199.6,114.2C201.6,113.4 203.3,112.7 205.3,111.9L262,111.9L223.3,147.4C193.9,174.3 192.2,219.7 218.9,248.7C233.7,264.9 280.1,289.9 320.4,253.1L328.6,245.6L436.8,333.4C440.2,336.2 440.7,341.3 438,344.7ZM544,303.9L474.8,303.9C472.5,301.1 469.9,298.5 467.1,296.2L364.4,212.8L376.9,201.4C383.4,195.4 383.9,185.3 377.9,178.8L367,167.1C361,160.6 350.9,160.2 344.4,166.1L289.2,216.7C279.7,225.4 263.5,226.1 254.6,216.7C245.3,206.8 246.1,191.6 255.8,182.8L321.4,122.7C328.8,115.9 338.4,112.2 348.4,112.2L432.1,112C434.2,112 436.2,112.8 437.6,114.3L499.3,175.9L544,175.9L544,303.9ZM592,351.6C583.2,351.6 576,344.4 576,335.6C576,326.8 583.2,319.6 592,319.6C600.8,319.6 608,326.8 608,335.6C608,344.5 600.8,351.6 592,351.6Z" style="fill-rule:nonzero;"/>
            </g>
        </g>
    </g>
</svg>
