<svg xmlns="http://www.w3.org/2000/svg" viewBox="0 0 717.33 800.12"><defs><style>.cls-1{fill:#231f20;}.cls-2{fill:none;}.cls-2,.cls-3{stroke:#231f20;stroke-miterlimit:10;stroke-width:10px;}.cls-3{fill:#e5a663;}</style></defs><title>errorant</title><g id="Layer_2"><g id="Layer_3"><path class="cls-1" d="M205.46,316.42c12.65-7.3,33.34-7.3,46,0l22.68,9.46a33.86,33.86,0,0,0-6.75-5.27L248.8,308.75c-11.18-6.46-29.47-6.47-40.65,0L175.7,327.35a33.75,33.75,0,0,0-6.7,5.22Z"/><path class="cls-1" d="M309.7,496.19l-58,30.52c-12.65,7.3-33.34,7.3-46,0L18.75,428a33.78,33.78,0,0,0,6.75,5.27L208.4,539.07c11.18,6.47,29.47,6.47,40.65,0l66.81-38.57A52.9,52.9,0,0,1,309.7,496.19Z"/><path class="cls-2" d="M248.7,297.29c-11.18-6.46-29.47-6.47-40.65,0L25.35,402.75C14.17,409.21,5,425.06,5,438l0,23.07c0,.13,0,.27,0,.41l0,33.78c1.06.59,2.13,1.19,3.19,1.86,3.53,2.24,7,3.64,10.6,6.09,5.62,3.9,14.53,8.62,28.08,21.8,1.66,1.61,7.22,8.61,8.55,10.25,4.36,5.35,8.3,11,13.56,15.52a50.22,50.22,0,0,0,9.08,6.51c5.38,2.8,14.26,2.16,18.85.17,34.82-15.09,56.66-7.51,66.73-1.46,24.93,15,33.24,35.9,35.9,61.3a69.7,69.7,0,0,1,.33,9.92c0,6-.21,15.75,6.15,17.37,9.14,2.33,11.34-7.43,12.7-13.92,3.09-14.67,22.62-24.31,36.93-16.91,9.86,5.1,13.89,8,23.64,3.69,12.21-5.39,18.49-19.06,22.75-26.34,7-12,17-16.11,17.57-16.72,19-11.87,66.84-8.79,68.6,43.9,0,2.89-.09,10.2-.1,14.68,0,5,.16,9.93-.16,15.13-.21,3.45-.83,7.07-1.16,10.57,0,0-1.78,10.33,6.65,10.38,5.25,0,7-1.24,9.54-5.49s1.29-11.14,1.19-13c-.23-4.13-1.62-8.72-1.79-11-.1-1.41,0-10.42.22-14,3.15-58.36,28.15-72.22,35.41-73.8,8.92-1.94,12.67.59,13.95.95l0-67.37a60.86,60.86,0,0,1-70.89,6.5,52.74,52.74,0,0,1-90.83-35,62.49,62.49,0,0,1-19.94-45.82"/><path class="cls-2" d="M270.32,410.89c2.2,18,7.68,34.38,19.94,45.82a52.74,52.74,0,0,0,90.83,35,60.86,60.86,0,0,0,70.85-6.47l.12,164.33c0,12.91-9.13,28.76-20.31,35.21L249,790.28c-11.18,6.46-29.48,6.45-40.65,0L25.49,684.49C14.32,678,5.17,662.17,5.16,649.26L5,438c0-12.91,9.13-28.76,20.31-35.21L208,297.28c11.18-6.46,29.48-6.45,40.65,0l45.11,30.28S265,367,270.32,410.89Z"/><path class="cls-3" d="M393.7,104.93"/><path class="cls-2" d="M623.94,295.63c1-1.53.51-3.24.46-4.84-.15-5.7-1.64-11.34-2.13-16.85-1-11.22-5.07-21.07-9.54-31h0l-.41-1.14v-.24l4.46-4.31c11.89-9,20.83-20.72,29.45-32.7a186.18,186.18,0,0,0,16.51-24c1.58-1.32,1.76-3.81,3.88-4.68,0,1.76.14,3.53,0,5.27a124,124,0,0,0,2.69,40.14h0l.64,2.71c4,18.12,10.66,34.95,23.73,48.62,0,0,27,31.31,16-13.68-3-12.42-15.53-19.9-20.73-31.54a5.83,5.83,0,0,0-1.42-3.7l0,0a134.23,134.23,0,0,1-4.9-58.68,172.77,172.77,0,0,1,8.81-35.79c1.43-4,1.55-8.27-3.08-10.94-4.44-2.56-8.64-2-12.71,1.84-3.09,2.92-5.05,6.54-6.82,10.36-10.17,21.94-21.46,43.26-35.15,63.25-8.65,12.27-18.08,23.83-30.1,33L602,226a14.36,14.36,0,0,0-3.87-5.06,88.46,88.46,0,0,0-18.31-18.22c-16.46-12.63-34.52-21.83-55.31-24.87-13-16.49-30-27.52-49.2-35.46a88.46,88.46,0,0,0-24.94-6.74,14.36,14.36,0,0,0-6.32-.82l-1.47-.94c2-15,7.25-29,13.55-42.59C466.61,69.42,479.43,49,493.35,29.2c2.42-3.44,4.58-7,5.56-11.09,1.3-5.45-.32-9.36-4.76-11.92-4.63-2.68-8.26-.44-11,2.8a172.77,172.77,0,0,1-26.59,25.52,134.23,134.23,0,0,1-53.27,25.1h0a5.83,5.83,0,0,0-3.92.62c-12.68,1.31-25.41-5.76-37.68-2.19-44.47,13-3.84,20.71-3.84,20.71,18.38,4.48,36.29,1.85,54-3.76l2.66-.8h0a124,124,0,0,0,36.11-17.74c1.43-1,3-1.77,4.56-2.65.31,2.27-1.76,3.67-2.11,5.7A186.18,186.18,0,0,0,440.5,85.78c-6.07,13.45-11.72,27-13.6,41.85l-1.5,6-.21.11L424,134h0c-10.83,1.09-21.4,2.49-31.61,7.24-5,2.33-10.65,3.86-15.65,6.58-1.41.76-3.11,1.23-4,2.82-9.23.47-17.31,4.47-24.45,9.67-18.13,13.2-29.65,31.14-34.87,52.92-3.08,12.86-3.4,25.73,2.53,38.05,1.05,2.19.38,4.25.13,6.35-2.73,23.18-1.77,46.13,4.07,68.79l.13,0c.09.44.18.88.28,1.32l-.08.37.15.37a21,21,0,0,0,2.12,8.29h0l.52,1.9s.21.3.21.29a1.17,1.17,0,0,0,.19.89.72.72,0,0,0,0,.5c.37,1.87.52,3.83,2.18,5.16,3,8.28-8.21,39.75-3.78,47.5,0,.7.16,1.36.94,1.65l0,.05a1.88,1.88,0,0,0,.85,2c1.54,3.73,2.89,7.58,7,11.24l-3.18-13.09c-.71-7.73-.71-7.73,6.93-5.87,1.54.38,3.11.67,4.89,1-.17-2.52-1.32-4.12-2.35-5.77h0c-1-5.45,9.06-14.08,10.34-21.11,0,0,21.74,34.56,42.94,46.79l62,13.79c-5.45,4.62-7.87,17.68-13.11,19.51h0c-1.94-.07-3.91-.26-6.17.85,1.22,1.36,2.26,2.57,3.35,3.72,5.43,5.69,5.44,5.68-1.62,8.93L422,460.49c5.22,1.72,9.23,1,13.22.43a1.88,1.88,0,0,0,2.14-.25h.06a1.58,1.58,0,0,0,1.9,0c8.93,0,30.56-25.51,39.25-27,2,.78,3.75-.07,5.56-.69a.72.72,0,0,0,.46-.21,1.17,1.17,0,0,0,.87-.28l.36,0,1.9-.5h0a21,21,0,0,0,8.24-2.31l.4-.06.29-.26L498,429l0,.12c22.55-6.28,42.9-16.92,61.61-30.88,1.69-1.26,3.14-2.88,5.56-3.06,13.64-1,24.62-7.74,34.22-16.84,16.26-15.41,26-34.36,28.4-56.66C628.73,312.86,628.16,303.87,623.94,295.63Z"/><ellipse class="cls-2" cx="369.82" cy="215.2" rx="43.7" ry="34.45" transform="translate(-1.45 427.87) rotate(-60)"/><ellipse class="cls-2" cx="571.03" cy="331.37" rx="43.7" ry="34.45" transform="translate(-1.45 660.21) rotate(-60)"/></g></g></svg>