<svg xmlns="http://www.w3.org/2000/svg" viewBox="0 0 46 46"><circle cx="23" cy="23" r="22" style="fill:none;stroke:#979797;stroke-width:2px"/><g><g><path d="M23,34.57a3.29,3.29,0,0,1-2.4-1,3.23,3.23,0,0,1-.92-1.77H15.44a2.67,2.67,0,0,1-1.86-4.57,5.06,5.06,0,0,0,.85-1,6.21,6.21,0,0,0,.74-1.9,14.4,14.4,0,0,0,.33-3.46,7.53,7.53,0,0,1,.82-3.42,7.74,7.74,0,0,1,2.25-2.64A7.51,7.51,0,0,1,21,13.63v-.31a2,2,0,0,1,.57-1.41,2,2,0,0,1,2.82,0A1.91,1.91,0,0,1,25,13.33a1.61,1.61,0,0,1,0,.31,7.32,7.32,0,0,1,2.45,1.18,7.56,7.56,0,0,1,2.25,2.65,7.28,7.28,0,0,1,.82,3.42,15.85,15.85,0,0,0,.31,3.44,6.74,6.74,0,0,0,.73,1.83,5,5,0,0,0,.89,1h0a2.68,2.68,0,0,1,.77,1.91,2.62,2.62,0,0,1-2.58,2.67H26.32a3.11,3.11,0,0,1-.92,1.77A3.25,3.25,0,0,1,23,34.57Zm0-20-1,.16a6,6,0,0,0-2.69,1.09A6.47,6.47,0,0,0,17.43,18a6.26,6.26,0,0,0-.68,2.85,15.75,15.75,0,0,1-.36,3.75,7.1,7.1,0,0,1-.9,2.21,6.08,6.08,0,0,1-1,1.27,1.46,1.46,0,0,0-.46,1,1.41,1.41,0,0,0,.41,1,1.35,1.35,0,0,0,1,.41h5.44v.62a2.1,2.1,0,0,0,.61,1.52,2,2,0,0,0,1.51.61,2,2,0,0,0,1.51-.61,2,2,0,0,0,.62-1.52v-.62h5.43a1.32,1.32,0,0,0,1-.41,1.34,1.34,0,0,0,.41-1,1.51,1.51,0,0,0-.42-1,6.06,6.06,0,0,1-1.08-1.28,7.59,7.59,0,0,1-.89-2.19,17,17,0,0,1-.36-3.76A6,6,0,0,0,28.54,18a6.26,6.26,0,0,0-1.88-2.21A6,6,0,0,0,24,14.71Zm0-2a.77.77,0,0,0-.75.76.71.71,0,0,0,.13.4l.62.82.62-.82a.58.58,0,0,0,.13-.4.79.79,0,0,0-.75-.76Z" style="fill:#979797"/></g></g></svg>