<?xml version="1.0" encoding="utf-8"?>
<!-- Generator: Adobe Illustrator 22.1.0, SVG Export Plug-In . SVG Version: 6.00 Build 0)  -->
<svg version="1.1" id="Layer_1" xmlns="http://www.w3.org/2000/svg" xmlns:xlink="http://www.w3.org/1999/xlink" x="0px" y="0px"
	 viewBox="0 0 46 46" style="enable-background:new 0 0 46 46;" xml:space="preserve">
<style type="text/css">
	.st0{display:none;}
	.st1{display:inline;fill:none;stroke:#808080;stroke-width:2;stroke-linecap:round;stroke-linejoin:round;}
	.st2{fill:none;stroke:#979797;stroke-width:2;}
	.st3{display:inline;}
	.st4{fill:#979797;}
</style>
<g transform="translate(1 1)">
	<g transform="translate(12 15)" class="st0">
		<polyline class="st1" points="3.3,7.9 6.4,10.4 3.3,13 		"/>
		<path class="st1" d="M7.5,12.8h4.1"/>
		<polygon class="st1" points="0.2,16.3 20.8,16.3 20.8,0.3 0.2,0.3 		"/>
		<path class="st1" d="M0.8,4.6h19.7 M4.6,0.7v3"/>
	</g>
	<circle class="st2" cx="22" cy="22" r="22"/>
</g>
<g id="Layer_2_1_" class="st0">
	<g id="Layer_1-2" class="st3">
		<path class="st4" d="M18.5,11.6l-4.6,4.6v18.7h18.2V11.6H18.5z M18.1,13.8v2.1H16L18.1,13.8z M30.8,33.6H15.2V17.1h4.2v-4.2h11.5
			V33.6z"/>
		<rect x="17.1" y="18.7" class="st4" width="11.7" height="1.2"/>
		<rect x="17.1" y="22.3" class="st4" width="11.7" height="1.2"/>
		<rect x="17.1" y="25.5" class="st4" width="11.7" height="1.2"/>
		<rect x="17.1" y="29" class="st4" width="8.5" height="1.2"/>
	</g>
</g>
<g id="Layer_2_2_">
	<g id="Layer_1-2_1_">
		<path class="st4" d="M23,34.6c-0.9,0-1.8-0.4-2.4-1c-0.5-0.5-0.8-1.1-0.9-1.8h-4.2c-1.5,0-2.7-1.2-2.7-2.7c0-0.7,0.3-1.4,0.8-1.9
			c0.3-0.3,0.6-0.6,0.9-1c0.3-0.6,0.6-1.2,0.7-1.9c0.2-1.1,0.4-2.3,0.3-3.5c0-1.2,0.3-2.4,0.8-3.4c0.5-1,1.3-1.9,2.2-2.6
			c0.7-0.5,1.6-0.9,2.5-1.2c0-0.1,0-0.2,0-0.3c0-0.5,0.2-1,0.6-1.4c0.8-0.8,2-0.8,2.8,0c0.4,0.4,0.6,0.9,0.6,1.4c0,0.1,0,0.2,0,0.3
			c0.9,0.2,1.7,0.6,2.5,1.2c0.9,0.7,1.7,1.6,2.2,2.6c0.5,1.1,0.8,2.2,0.8,3.4c0,1.2,0.1,2.3,0.3,3.4c0.2,0.6,0.4,1.3,0.7,1.8
			c0.2,0.4,0.5,0.7,0.9,1l0,0c0.5,0.5,0.8,1.2,0.8,1.9c0,1.5-1.1,2.6-2.6,2.7c0,0-0.1,0-0.1,0h-4.2c-0.1,0.7-0.4,1.3-0.9,1.8
			C24.8,34.2,23.9,34.6,23,34.6z M23,14.6l-1,0.2c-1,0.1-1.9,0.5-2.7,1.1c-0.8,0.6-1.4,1.3-1.9,2.2c-0.5,0.9-0.7,1.9-0.7,2.9
			c0,1.3-0.1,2.5-0.4,3.8c-0.2,0.8-0.5,1.5-0.9,2.2c-0.3,0.5-0.6,0.9-1,1.3c-0.3,0.3-0.4,0.6-0.5,1c0,0.4,0.1,0.7,0.4,1
			c0.3,0.3,0.6,0.4,1,0.4h5.4v0.6c0,0.6,0.2,1.1,0.6,1.5c0.4,0.4,0.9,0.6,1.5,0.6c0.6,0,1.1-0.2,1.5-0.6c0.4-0.4,0.6-0.9,0.6-1.5
			v-0.6h5.4c0.4,0,0.7-0.1,1-0.4c0.3-0.3,0.4-0.6,0.4-1c0-0.4-0.2-0.7-0.4-1c-0.4-0.4-0.8-0.8-1.1-1.3c-0.4-0.7-0.7-1.4-0.9-2.2
			c-0.3-1.2-0.4-2.5-0.4-3.8c0-1-0.2-2-0.7-2.9c-0.4-0.9-1.1-1.6-1.9-2.2c-0.8-0.6-1.7-1-2.7-1.1L23,14.6z M23,12.6
			c-0.2,0-0.4,0.1-0.5,0.2c-0.2,0.1-0.2,0.3-0.2,0.5c0,0.1,0,0.3,0.1,0.4l0.6,0.8l0.6-0.8c0.1-0.1,0.1-0.3,0.1-0.4
			c0-0.2-0.1-0.4-0.2-0.5C23.4,12.7,23.2,12.6,23,12.6z"/>
	</g>
</g>
</svg>
