<svg xmlns="http://www.w3.org/2000/svg" viewBox="0 0 21 17.06"><title>list-icon</title><g id="Layer_2"><g id="Layer_1-2"><path d="M.66,3.94a.63.63,0,0,1-.48-.19A.64.64,0,0,1,0,3.28V.66A.66.66,0,0,1,.18.18.66.66,0,0,1,.66,0H3.28a.64.64,0,0,1,.47.18.63.63,0,0,1,.19.48V3.28a.65.65,0,0,1-.66.66Zm0,6.56a.66.66,0,0,1-.48-.18A.66.66,0,0,1,0,9.84V7.22a.64.64,0,0,1,.18-.47.63.63,0,0,1,.48-.19H3.28a.65.65,0,0,1,.66.66V9.84a.63.63,0,0,1-.19.48.64.64,0,0,1-.47.18Zm0,6.56a.66.66,0,0,1-.48-.18A.66.66,0,0,1,0,16.41V13.78a.64.64,0,0,1,.18-.47.66.66,0,0,1,.48-.18H3.28a.64.64,0,0,1,.47.18.61.61,0,0,1,.19.47v2.63a.63.63,0,0,1-.19.47.64.64,0,0,1-.47.18ZM5.25,2.79a.64.64,0,0,0,.18.47.67.67,0,0,0,.48.19H20.34a.67.67,0,0,0,.48-.19A.64.64,0,0,0,21,2.79V1.15a.64.64,0,0,0-.18-.47.63.63,0,0,0-.48-.19H5.91a.63.63,0,0,0-.48.19.64.64,0,0,0-.18.47ZM5.91,10a.63.63,0,0,1-.48-.19.64.64,0,0,1-.18-.47V7.71a.64.64,0,0,1,.18-.47.67.67,0,0,1,.48-.19H20.34a.67.67,0,0,1,.48.19.64.64,0,0,1,.18.47V9.35a.64.64,0,0,1-.18.47.63.63,0,0,1-.48.19Zm0,6.56a.62.62,0,0,1-.66-.66V14.27a.64.64,0,0,1,.18-.47.66.66,0,0,1,.48-.18H20.34a.66.66,0,0,1,.48.18.64.64,0,0,1,.18.47v1.64a.62.62,0,0,1-.66.66Z"/></g></g></svg>