<svg version="1.1" xmlns="http://www.w3.org/2000/svg" xmlns:xlink="http://www.w3.org/1999/xlink" x="0px" y="0px" width="16px" height="16px" viewBox="0 0 16 16" enable-background="new 0 0 16 16" xml:space="preserve"><g transform="translate(0, 0)"><path fill="none" stroke="#444444" stroke-linecap="butt" stroke-linejoin="miter" stroke-miterlimit="10" d="M13.5,15.5h-11 c-0.552,0-1-0.448-1-1v-8c0-0.552,0.448-1,1-1h11c0.552,0,1,0.448,1,1v8C14.5,15.052,14.052,15.5,13.5,15.5z" data-cap="butt"></path> <path fill="none" stroke="#444444" stroke-linecap="butt" stroke-linejoin="miter" stroke-miterlimit="10" d="M5,5.5v-2 c0-1.657,1.343-3,3-3h0c1.657,0,3,1.343,3,3v2" data-cap="butt"></path> <circle fill="none" stroke="#444444" stroke-linecap="butt" stroke-linejoin="miter" stroke-miterlimit="10" cx="8" cy="9.5" r="1.5" data-cap="butt" color="color-2"></circle> <line fill="none" stroke="#444444" stroke-linecap="butt" stroke-linejoin="miter" stroke-miterlimit="10" x1="8" y1="13" x2="8" y2="11" data-cap="butt" color="color-2"></line> </g></svg>
