<svg xmlns="http://www.w3.org/2000/svg" viewBox="0 0 326.41 421.34"><defs><style>.cls-1{fill:#33302e;}</style></defs><title>modal-error</title><g id="Layer_2"><g id="Mask"><path class="cls-1" d="M221,349.41l0-48h0l0-44.1h0l0-.63V245a19,19,0,0,0-1.6-7.17c-8.6,11-19.47,17.32-28,16.16l-70.71,40.83c-5.53,3.19-14.57,3.18-20.09,0L10.13,242.49a16.42,16.42,0,0,1-3.33-2.6l92.43,48.77c6.25,3.62,16.48,3.62,22.73,0l67-35.26a12.43,12.43,0,0,1-2.39-1.06,13,13,0,0,1-3.35-2.79c-9.19,8-18.41,11.28-24.59,7.71a11.33,11.33,0,0,1-4.28-4.57c-8.67,7.09-16.78,10-22.15,6.87S125.23,248,127,237a11.28,11.28,0,0,1-6.1-1.41c-6.19-3.57-7.94-13.2-5.61-25.16a13,13,0,0,1-4.1-1.5c-7.54-4.36-9.57-15.87-6.1-28.81a20.4,20.4,0,0,0-6,2.18l-18,8a16.25,16.25,0,0,1,3.32-2.58l16-9.2a18.12,18.12,0,0,1,5.83-2c.38-1.13.8-2.26,1.27-3.4a18.92,18.92,0,0,0-7.16,2.22L10,227.4c-5.52,3.19-10,11-10,17.41L.08,349.24c0,6.39,4.53,14.22,10.05,17.42l90.41,52.28a22.26,22.26,0,0,0,20.09,0l90.31-52.14C216.46,363.62,221,355.79,221,349.41Zm-11,15.67-90.31,52.14a20.31,20.31,0,0,1-18.09,0L11.13,364.93c-4.9-2.84-9-10-9-15.69l-.06-75c1.61,1,3.21,1.65,4.82,2.77a79.09,79.09,0,0,1,13.89,10.77c.82.8,3.56,4.26,4.22,5.07,2.16,2.64,4.11,5.45,6.71,7.67a25,25,0,0,0,4.49,3.22c2.65,1.38,7,1.07,9.31.08,17.21-7.46,28-3.71,33-.72,12.32,7.39,16.43,17.75,17.74,30.3a34.2,34.2,0,0,1,.17,4.9c0,3-.11,7.79,3,8.59,4.52,1.15,5.6-3.67,6.28-6.88,1.52-7.25,11.18-12,18.25-8.36,4.88,2.52,6.87,3.95,11.69,1.83,6-2.67,9.14-9.43,11.24-13a22,22,0,0,1,8.69-8.26c9.41-5.87,33-4.35,33.91,21.7,0,1.43-.05,5-.05,7.26,0,2.47.07,4.9-.08,7.47-.11,1.71-.41,3.5-.58,5.23,0,0-.88,5.11,3.29,5.13,2.59,0,3.43-.61,4.71-2.72s.64-5.5.59-6.44c-.11-2-.8-4.31-.88-5.45-.05-.7,0-5.15.1-6.92,1.56-28.85,13.92-35.7,17.51-36.48a11.65,11.65,0,0,1,4.87-.19l0,48.6C219,355.07,214.84,362.25,209.94,365.08Z"/><path class="cls-1" d="M182.39,232.16a11.4,11.4,0,0,1-3.64-.58l-3.06-1,9.53-2.8a16.16,16.16,0,0,0,2.06-1.05,17.24,17.24,0,0,0-1.61-1.81c-.39-.41-.75-.82-1.14-1.26L183.07,222l1.18-.59a6.4,6.4,0,0,1,3.34-.53h.07a19.66,19.66,0,0,1,2.66-.62,13.79,13.79,0,0,0,3.84-1.12L162.66,206c-8.93-5.16-22.56-16.6-27.15-20.53a14.61,14.61,0,0,0,1,3.73,21.94,21.94,0,0,1,.79,2.61l0,.06a6.39,6.39,0,0,1,1.2,3.16l.09,1.32-2.14-.45c-.58-.12-1.12-.23-1.65-.36a19.48,19.48,0,0,0-2.4-.49,17.24,17.24,0,0,0,.13,2.31l2.34,9.65-2.4-2.14a13.67,13.67,0,0,1-3.58-5.57l-.11-.26a2,2,0,0,1-.6-1.09,1.91,1.91,0,0,1-.45-1.05c-1.21-2.49-.2-7.74.86-13.28.76-4,1.63-8.54,1.15-10.4a4.51,4.51,0,0,1-1.15-2.64l-.05-.25a1.88,1.88,0,0,1-.06-.31,2.14,2.14,0,0,1-.09-.34l0,0-.28-1A11.69,11.69,0,0,1,127,164.3a.9.9,0,0,1-.07-.27.82.82,0,0,1,0-.35v0l-.06,0-.08-.33a94.33,94.33,0,0,1-2.08-35.05c0-.22.07-.44.1-.66a3.25,3.25,0,0,0-.07-2c-2.74-5.69-3.18-12.19-1.35-19.85a46,46,0,0,1,18-27.25c4.21-3.07,8.26-4.72,12.37-5a4.53,4.53,0,0,1,1.62-1.11c.15-.07.3-.14.44-.22a38.87,38.87,0,0,1,4.72-2c1.13-.42,2.2-.83,3.23-1.31,5.33-2.47,10.73-3.18,16.24-3.73l.6-2.39c1-7.69,4-14.75,6.93-21.33a93.65,93.65,0,0,1,6.26-13.2c0-.06,0-.13,0-.19a63.9,63.9,0,0,1-18.26,8.92l-1.34.41c-10.55,3.34-19.36,4-27.73,1.9-2.11-.4-9.16-2-9.32-5.4-.12-2.53,3.33-4.68,11.21-7,3.68-1.07,7.39-.37,11,.31a29.37,29.37,0,0,0,8.05.77c13.4-3.08,20.41-6.61,28.48-12.78A85.15,85.15,0,0,0,209.09,2.36c2.63-3.08,5.16-2.59,6.82-1.63,2.62,1.52,3.61,4,2.87,7.11a17.52,17.52,0,0,1-3,5.94,214.59,214.59,0,0,0-18.67,31.14c-2.51,5.42-5.51,12.62-6.65,20.47a8.88,8.88,0,0,1,3,.47,45.93,45.93,0,0,1,12.77,3.46C217,73.75,225.16,79.6,231.25,87.2c9.62,1.48,18.77,5.63,28,12.67a45.77,45.77,0,0,1,9.38,9.33,8.92,8.92,0,0,1,1.92,2.38c6.23-4.91,11-11.1,14.41-16a214.55,214.55,0,0,0,17.63-31.73,17.63,17.63,0,0,1,3.66-5.53c2.34-2.21,5-2.58,7.59-1.06,1.67,1,3.36,2.89,2,6.71a85.75,85.75,0,0,0-4.39,17.84,67.08,67.08,0,0,0,2.37,29,24.8,24.8,0,0,0,5.5,8.69c2.38,2.77,4.85,5.64,5.76,9.36,1.95,8,1.82,12-.43,13.19-3,1.56-7.94-3.74-9.37-5.4-5.92-6.19-9.8-14.13-12.19-24.95l-.32-1.35A64.18,64.18,0,0,1,301.33,90l-.14.15a94.35,94.35,0,0,1-8.33,12.06c-4.18,5.82-8.81,11.93-15,16.62l-1.77,1.71,0,.06c2.25,5,4.34,10,4.86,15.88.1,1.13.29,2.26.48,3.45a38.82,38.82,0,0,1,.6,5.1,3.91,3.91,0,0,0,0,.49,4.54,4.54,0,0,1-.16,2c1.78,3.72,2.38,8.05,1.83,13.23a46,46,0,0,1-14.62,29.19c-5.72,5.41-11.56,8.28-17.87,8.75a3.24,3.24,0,0,0-1.75.93c-.17.15-.35.29-.53.42a94.17,94.17,0,0,1-31.39,15.73l-.33.09-.07,0h0l-.09.06a1,1,0,0,1-.47.18,11.28,11.28,0,0,1-4.3,1.19l-1,.26h0a1.91,1.91,0,0,1-.34.1l-.3.1-.25.08a4.46,4.46,0,0,1-2.85.32c-1.86.52-5.34,3.53-8.43,6.2-4.27,3.69-8.31,7.18-11.07,7.38a1.8,1.8,0,0,1-1.15.14,2,2,0,0,1-1.24,0l-.27,0A20.8,20.8,0,0,1,182.39,232.16Zm5.07-2.22h0Zm-.93-7.05c.19.22.38.43.58.63,1.66,1.74,2.41,2.53,2.21,3.6s-1.25,1.55-3.33,2.51l-.14.05-.89.26.14,0,.73-.1.23.08.11,0,.21-.19.77,0,.17.12h0l.2-.11h.24c2,0,6.44-3.83,10-6.9,3.91-3.38,7.29-6.3,9.62-6.71l.27,0,.26.1a2.51,2.51,0,0,0,1.77-.24l.32-.11.5-.18,1.52-.36h.09a9.27,9.27,0,0,0,3.4-.9l1-.41,1.43-.37a92.55,92.55,0,0,0,29.89-15.16l.46-.37a5,5,0,0,1,2.86-1.37c5.91-.44,11.2-3.06,16.64-8.22a44,44,0,0,0,14-27.94c.53-5-.07-9.1-1.84-12.55l-.25-.51L280,147a2.06,2.06,0,0,0,.12-1.28c0-.21,0-.41,0-.6a35.75,35.75,0,0,0-.57-4.83c-.19-1.18-.39-2.4-.5-3.61-.49-5.54-2.52-10.4-4.72-15.3l-.24-.64h0a1.21,1.21,0,0,1-.07-.41l0-.45,2.67-2.56c6-4.54,10.5-10.53,14.64-16.28a92.17,92.17,0,0,0,8.27-12l.09-.15s1.4-2.24,2.35-2.63l1.38-.57v1.49c0,.27,0,.54,0,.82a17.91,17.91,0,0,1,0,1.93,61.66,61.66,0,0,0,1.33,19.92l.32,1.36c2.31,10.47,6,18.1,11.72,24.06,2.44,2.82,5.88,5.53,7,5,.3-.16,1.72-1.44-.6-10.94-.8-3.26-3-5.82-5.34-8.54a30.45,30.45,0,0,1-5.06-7.19l-.76-2a69,69,0,0,1-2.51-30,87.63,87.63,0,0,1,4.49-18.25c1-2.7-.09-3.72-1.11-4.31-1.89-1.09-3.5-.85-5.22.79a15.36,15.36,0,0,0-3.22,4.91,216.77,216.77,0,0,1-17.81,32c-3.64,5.17-8.67,11.74-15.39,16.89l-.51.38-1.68-.87-.14-.36a6.35,6.35,0,0,0-1.69-2.17l-.13-.15a42.88,42.88,0,0,0-9-9c-9-6.93-18-11-27.42-12.34l-.39-.06-.25-.31C224,81.28,216,75.53,205.53,71.17a43,43,0,0,0-12.29-3.33l-.17,0a6.48,6.48,0,0,0-2.75-.39l-.38.07-1.6-1,.08-.63c1.09-8.39,4.27-16,6.92-21.76a218.13,218.13,0,0,1,18.84-31.45,15.52,15.52,0,0,0,2.65-5.24c.55-2.31,0-3.83-1.93-4.92-1-.59-2.43-1-4.29,1.2a87.28,87.28,0,0,1-13.56,13,69.07,69.07,0,0,1-27.24,12.84l-2.11.33a30.21,30.21,0,0,1-8.76-.79c-3.52-.66-6.84-1.29-10.06-.35-9.4,2.74-9.79,4.61-9.77,4.95,0,1.23,4.12,2.86,7.74,3.55,8.05,2,16.52,1.37,26.72-1.87l1.36-.4a61.93,61.93,0,0,0,17.91-8.81,18.13,18.13,0,0,1,1.66-1l.72-.39,1.29-.75.2,1.48c.14,1-1.1,3.35-1.1,3.35l-.09.16a92,92,0,0,0-6.23,13.11c-2.93,6.5-5.85,13.42-6.79,20.86l0,.11-.86,3.48-.8.36-.6.1c-5.42.55-10.63,1.23-15.69,3.58-1.09.51-2.25.94-3.37,1.37a33.86,33.86,0,0,0-4.46,1.92l-.54.26c-.54.26-.88.44-1.05.75l-.27.5-.56,0c-3.88.2-7.74,1.73-11.79,4.68a44.06,44.06,0,0,0-17.2,26.11c-1.75,7.29-1.37,13.18,1.2,18.52a5,5,0,0,1,.25,3.16c0,.2-.07.39-.09.59a92.27,92.27,0,0,0,1.8,33.4h.06l.24,1c0,.2.09.4.13.6l.06.52V164c0,.1,0,.2,0,.3l1,3.63.43,1.43.09.52.07.34c.14.8.25,1.31.67,1.64l.22.18.1.26c.81,2.22,0,6.61-1,11.68-.88,4.62-2,10.36-1,12.12l.12.2v.25l.17.06.38.68-.07.32.09.08.18.15.29.69a.61.61,0,0,0,.05.12l-.25-1c-.21-2.28-.31-3.43.51-4.14s1.88-.45,4.21.12l.85.19c-.15-.29-.32-.56-.5-.85l-.24-.38,0-.18a16.25,16.25,0,0,0-.75-2.52,12.33,12.33,0,0,1-.92-6.65l.31-1.73,1.33,1.16c.18.15,17.83,15.53,28.32,21.6l34.54,14.44-1.24,1.06a12.36,12.36,0,0,1-6.22,2.52,17,17,0,0,0-2.55.61l-.18.06-.45,0C187.17,222.89,186.84,222.88,186.53,222.89ZM130.15,197.7Z"/><ellipse class="cls-1" cx="152.56" cy="104.94" rx="23.22" ry="18.14" transform="translate(-14.6 184.59) rotate(-60)"/><ellipse class="cls-1" cx="255.23" cy="164.22" rx="23.22" ry="18.14" transform="translate(-14.6 303.15) rotate(-60)"/></g></g></svg>