<svg xmlns="http://www.w3.org/2000/svg" viewBox="0 0 312.55 265.62"><defs><style>.cls-1{fill:#33302e;}</style></defs><title>modal-info</title><g id="Layer_2"><g id="Mask"><path class="cls-1" d="M273.47,265.62a16.28,16.28,0,0,1-1.7-.09l-257.44-27A16,16,0,0,1,.09,220.91L23.29,0,312.55,30.37l-23.2,220.91a16,16,0,0,1-15.88,14.34ZM25.07,2.2l-23,218.92a14,14,0,0,0,12.46,15.39l257.44,27a14,14,0,0,0,15.39-12.46l23-218.93Z"/><path class="cls-1" d="M284.91,252.66H26.06a16,16,0,0,1-16-16V14.54H300.91V236.66A16,16,0,0,1,284.91,252.66ZM12.06,16.54V236.66a14,14,0,0,0,14,14H284.91a14,14,0,0,0,14-14V16.54Z"/><path class="cls-1" d="M144.54,174.85h0l0-20.14h0l0-.29v-5.37a10.22,10.22,0,0,0-4.59-8L98.65,117.22a9.43,9.43,0,0,0-4.6-1.1h0a9.49,9.49,0,0,0-4.59,1.09L48.22,141A10.17,10.17,0,0,0,43.63,149l0,47.7a10.19,10.19,0,0,0,4.59,8L89.55,228.5a9.39,9.39,0,0,0,4.59,1.1,9.52,9.52,0,0,0,4.59-1.09L140,204.69a10.14,10.14,0,0,0,4.58-7.94Zm-40.16-52.3-5.11-2.14a11.5,11.5,0,0,0-10.38,0l-8.24,3.64a7.82,7.82,0,0,1,1.52-1.17l7.32-4.21a10.2,10.2,0,0,1,9.18,0l4.19,2.68A7,7,0,0,1,104.38,122.55ZM89,169a11.5,11.5,0,0,0,10.38,0l42.15-22.2A7.54,7.54,0,0,1,140,148L98.73,171.8a10.17,10.17,0,0,1-9.18,0L48.26,147.92a7.65,7.65,0,0,1-1.52-1.19Zm50.52,34.83L98.23,227.64a9.19,9.19,0,0,1-8.18,0L48.76,203.76a9.2,9.2,0,0,1-4.09-7.09l0-34.19c.71.42,1.41.73,2.12,1.22a35.91,35.91,0,0,1,6.34,4.92c.37.36,1.63,1.94,1.93,2.31a24.92,24.92,0,0,0,3.06,3.5,11.16,11.16,0,0,0,2,1.47,5.76,5.76,0,0,0,4.26,0c7.86-3.41,12.79-1.69,15.06-.33,5.63,3.38,7.5,8.11,8.1,13.84a15.47,15.47,0,0,1,.08,2.24c0,1.36,0,3.55,1.39,3.92,2.06.53,2.56-1.68,2.87-3.14.69-3.31,5.1-5.49,8.33-3.82,2.23,1.15,3.14,1.8,5.34.83,2.76-1.21,4.17-4.3,5.14-5.94a10.05,10.05,0,0,1,4-3.78c4.3-2.68,15.09-2,15.49,9.91,0,.65,0,2.31,0,3.32s0,2.24,0,3.41c0,.78-.19,1.6-.26,2.39,0,0-.41,2.33,1.5,2.34a2,2,0,0,0,2.15-1.24,5.11,5.11,0,0,0,.27-2.94c0-.93-.37-2-.41-2.49,0-.32,0-2.35.05-3.16.71-13.18,6.36-16.31,8-16.66a5.4,5.4,0,0,1,2.14-.1v22.21A9.17,9.17,0,0,1,139.47,203.83Z"/><path class="cls-1" d="M46.16,73.93q-1.66-2.34-1.66-7V57.78a17.4,17.4,0,0,1,.66-5.23,5.85,5.85,0,0,1,2.27-3.14,7.73,7.73,0,0,1,4.41-1.1q3.79,0,5.46,1.93t1.68,6v1H55.39v-.85a15.49,15.49,0,0,0-.23-3,2.55,2.55,0,0,0-1-1.6,3.89,3.89,0,0,0-2.25-.54,3.39,3.39,0,0,0-2.37.72,3.45,3.45,0,0,0-1,2,19.68,19.68,0,0,0-.22,3.24V67.35a10,10,0,0,0,.76,4.52A3.06,3.06,0,0,0,52,73.24a3,3,0,0,0,2.93-1.49A10.67,10.67,0,0,0,55.73,67V65.09H52.25V62.38h6.93V75.94h-2.4l-.37-3.14a4.82,4.82,0,0,1-4.87,3.48C49.06,76.28,47.26,75.5,46.16,73.93Z"/><path class="cls-1" d="M67.43,48.54h3.69L77,75.94H73.35L72.1,69H66.52l-1.32,6.9H61.62ZM71.59,66.3,69.29,54,67,66.3Z"/><path class="cls-1" d="M79.75,48.54h2.6l7.78,18.2V48.54h3.18v27.4H90.88L83,57.24v18.7H79.75Z"/><path class="cls-1" d="M101.94,48.54h3.68l5.86,27.4h-3.62L106.61,69H101l-1.31,6.9H96.12ZM106.1,66.3,103.8,54,101.53,66.3Z"/><path class="cls-1" d="M115.26,73.83a11.72,11.72,0,0,1-1.65-6.68V57.48q0-4.5,1.62-6.84T121,48.31c2.46,0,4.22.66,5.3,2a9.25,9.25,0,0,1,1.6,5.89v2.17h-3.62V56.43a17.9,17.9,0,0,0-.17-2.91,2.68,2.68,0,0,0-.86-1.63,3.34,3.34,0,0,0-2.21-.6,3.47,3.47,0,0,0-2.32.65,3.16,3.16,0,0,0-1,1.83,16.21,16.21,0,0,0-.24,3.13V67.76A12.69,12.69,0,0,0,117.8,71a2.89,2.89,0,0,0,1.1,1.69,3.78,3.78,0,0,0,2.12.51,3.18,3.18,0,0,0,2.16-.64,3,3,0,0,0,.9-1.76,20.2,20.2,0,0,0,.18-3v-2h3.62v2a10.81,10.81,0,0,1-1.54,6.28q-1.53,2.18-5.36,2.18Q116.93,76.25,115.26,73.83Z"/><path class="cls-1" d="M131.54,48.54h3.82V60.38h7V48.54h3.83v27.4h-3.83V63.12h-7V75.94h-3.82Z"/><path class="cls-1" d="M150.51,48.54h10.62v2.85h-6.8v9.06h5.52v2.71h-5.52v10h6.87v2.73H150.51Z"/><path class="cls-1" d="M172,48.54h3.82V60.38h7V48.54h3.83v27.4h-3.83V63.12h-7V75.94H172Z"/><path class="cls-1" d="M191,48.54h10.62v2.85h-6.8v9.06h5.52v2.71h-5.52v10h6.87v2.73H191Z"/><path class="cls-1" d="M204.77,48.54h5.51c2.78,0,4.81.57,6.11,1.71s1.94,3,1.94,5.57c0,3.52-1.12,5.65-3.38,6.39l3.89,13.73h-3.69l-3.58-12.85h-3V75.94h-3.82Zm5.28,11.81a5.17,5.17,0,0,0,3.53-1c.71-.65,1.07-1.84,1.07-3.55a7.58,7.58,0,0,0-.38-2.66A2.53,2.53,0,0,0,213,51.74a6.44,6.44,0,0,0-2.68-.45h-1.69v9.06Z"/><path class="cls-1" d="M226.66,48.54h3.68l5.85,27.4h-3.62L231.32,69h-5.58l-1.32,6.9h-3.58Zm4.16,17.76L228.52,54,226.25,66.3Z"/><path class="cls-1" d="M239,48.54h3.82V73.21h7v2.73H239Z"/><path class="cls-1" d="M252.4,48.54h6c2.95,0,5,.68,6.27,2s1.85,3.47,1.85,6.33V67q0,4.53-1.81,6.75c-1.21,1.48-3.21,2.21-6,2.21H252.4Zm6,24.67a4.39,4.39,0,0,0,2.9-.78,3.45,3.45,0,0,0,1.11-2.12,26.66,26.66,0,0,0,.22-4v-8.9a16.13,16.13,0,0,0-.29-3.56,2.8,2.8,0,0,0-1.2-1.83,5.28,5.28,0,0,0-2.84-.59h-2.06V73.21Z"/><rect class="cls-1" x="32.15" y="37.81" width="246.67" height="1"/><rect class="cls-1" x="32.15" y="85.44" width="246.67" height="1"/><rect class="cls-1" x="167.69" y="115.62" width="99.65" height="1"/><rect class="cls-1" x="167.69" y="125.62" width="99.65" height="1"/><rect class="cls-1" x="167.69" y="135.62" width="99.65" height="1"/><rect class="cls-1" x="167.69" y="145.62" width="99.65" height="1"/><rect class="cls-1" x="167.69" y="155.62" width="99.65" height="1"/><rect class="cls-1" x="167.69" y="165.62" width="99.65" height="1"/><rect class="cls-1" x="167.69" y="175.62" width="99.65" height="1"/><rect class="cls-1" x="167.69" y="185.62" width="99.65" height="1"/><rect class="cls-1" x="167.69" y="195.62" width="99.65" height="1"/><rect class="cls-1" x="167.69" y="205.62" width="99.65" height="1"/><rect class="cls-1" x="167.69" y="215.62" width="99.65" height="1"/><rect class="cls-1" x="167.69" y="225.62" width="63.22" height="1"/></g></g></svg>