<svg xmlns="http://www.w3.org/2000/svg" viewBox="0 0 425.57 383.08"><defs><style>.cls-1{fill:#33302e;}</style></defs><title>modal-update</title><g id="Layer_2"><g id="Mask"><path class="cls-1" d="M161.07,233.73h0l0-20.14h0l0-.28v-5.38a10.21,10.21,0,0,0-4.59-8L115.18,176.1a9.39,9.39,0,0,0-4.6-1.09h0A9.38,9.38,0,0,0,106,176.1L64.75,199.91a10.15,10.15,0,0,0-4.58,8l0,47.69a10.21,10.21,0,0,0,4.59,8l41.29,23.88a10.21,10.21,0,0,0,9.18,0l41.24-23.81a10.21,10.21,0,0,0,4.59-7.95Zm-40.15-52.3-5.12-2.14a11.5,11.5,0,0,0-10.38,0l-8.23,3.65a7.54,7.54,0,0,1,1.51-1.18l7.32-4.2a10.17,10.17,0,0,1,9.18,0l4.19,2.68A7.7,7.7,0,0,1,120.92,181.43Zm-15.44,46.46a11.5,11.5,0,0,0,10.38,0L158,205.69a7.19,7.19,0,0,1-1.51,1.18l-41.24,23.81a10.17,10.17,0,0,1-9.18,0L64.79,206.8a8,8,0,0,1-1.52-1.19ZM156,262.71l-41.24,23.81a9.19,9.19,0,0,1-8.18,0L65.29,262.64a9.22,9.22,0,0,1-4.09-7.09l0-34.18c.7.41,1.4.72,2.11,1.21a35.91,35.91,0,0,1,6.34,4.92c.38.36,1.63,1.94,1.93,2.31a26.28,26.28,0,0,0,3.06,3.51,12.2,12.2,0,0,0,2,1.47,5.8,5.8,0,0,0,4.26,0c7.86-3.4,12.79-1.69,15.06-.33,5.63,3.38,7.51,8.11,8.11,13.84a16.48,16.48,0,0,1,.07,2.24c0,1.37,0,3.56,1.39,3.92,2.06.53,2.56-1.68,2.87-3.14.69-3.31,5.1-5.49,8.34-3.82,2.22,1.15,3.13,1.81,5.33.84,2.76-1.22,4.17-4.31,5.14-6a10.12,10.12,0,0,1,4-3.78c4.3-2.68,15.09-2,15.49,9.92,0,.65,0,2.3,0,3.31s0,2.24,0,3.41c0,.78-.19,1.6-.26,2.39,0,0-.4,2.33,1.5,2.34a2,2,0,0,0,2.15-1.24,5.11,5.11,0,0,0,.27-2.94c0-.93-.37-2-.4-2.49,0-.32,0-2.35,0-3.16.71-13.17,6.36-16.3,8-16.66a5.4,5.4,0,0,1,2.14-.1l0,22.21A9.18,9.18,0,0,1,156,262.71Z"/><path class="cls-1" d="M420.72,112.19h4.85l-3.44-3.42L397,83.72l-.59-.59h-.83l-12.3,0L271,23.23,265.91,0l-5,23.05L129.87,72.93H31l-.6.76L2.56,109,0,112.19H95.23v5h4l-.49,0,3.62,34.38h-1.31V162.9l7.49,7.2a2.9,2.9,0,1,0,4.17,0l7.49-7.2V151.63h-1.31l3.62-34.38-.49,0h4v-5H227.34l17.23,26.72V383.08h42.7V138.71l5-26.52Zm-308.2,59.92a1.9,1.9,0,1,1-3.79,0,1.87,1.87,0,0,1,.53-1.31l1.37,1.31L112,170.8A1.87,1.87,0,0,1,112.52,172.11Zm5.87-20.48H102.86l.5,0L99.74,117.2h21.77l-3.62,34.38ZM395.54,85.14l25.18,25h-223l22.22-24.31-.37-.34,165.3-.38.82.44.23-.44ZM127.42,74.93h45.24L149.5,109.29,126.78,75.17Zm92.13,10.61-.37-.34-22.1,24.18L173.87,74.93h45.68Zm-46.29-9.72,23.16,34.37H150.1Zm207.86,7.35-97.05.22L271.25,24.51ZM265.92,9.43,282,83.4l-32.12.07Zm-5.24,14.79L247.86,83.48l-26.31.06V72.93H132.68ZM125.42,74.93l-22.08,34.35L80.19,74.93ZM79,74.93,55.82,109.3,32.59,74.93Zm-47.32.41,23.56,34.85H4.13Zm24.77,34.85L79.59,75.82l23.16,34.37H56.43Zm47.51,0L126,75.84l22.88,34.35h-45Zm161.31,65.39-18.68,21.06V154.52Zm-18.13,21.94,18.8-21.19,18.79,21.19Zm37.59,2-18.79,21.2-18.8-21.2Zm-19.46,21.95-18.68,21.06V200.4Zm-18.13,21.94,18.8-21.19,18.79,21.19Zm37.59,2L265.92,266.6l-18.8-21.19Zm-19.46,22-18.68,21.06V246.29ZM247.12,289.3l18.8-21.19,18.79,21.19Zm37.59,2-18.79,21.19-18.8-21.19Zm-19.46,21.95-18.68,21.06V292.18Zm-18.13,21.94L265.92,314l18.79,21.19Zm37.59,2-18.79,21.19-18.8-21.19Zm-19.46,21.95L246.57,380.2V338.07Zm.67.75,18.79,21.19H247.12Zm.67-.75,18.68-21.07V380.2Zm0-45.89,18.68-21.07v42.13Zm0-45.89,18.68-21.07v42.13Zm0-45.89,18.68-21.07v42.13Zm0-45.89,18.68-21.06v42.12Zm-.67-.75-18.8-21.2h37.59Zm19.52-37.21H246.11l-16.4-25.43h60.52Z"/></g></g></svg>