<svg xmlns="http://www.w3.org/2000/svg" viewBox="0 0 21.88 21.88"><defs><style>.cls-1{fill:var(--app-button-primary-background-color);}</style></defs><title>save-icon</title><g id="Layer_2"><g id="Layer_1-2"><path class="cls-1" d="M21.19,4.79a2.23,2.23,0,0,1,.69,1.66V19.53a2.36,2.36,0,0,1-2.35,2.35H2.34a2.26,2.26,0,0,1-1.66-.69A2.27,2.27,0,0,1,0,19.53V2.34A2.32,2.32,0,0,1,2.34,0H15.43a2.29,2.29,0,0,1,1.66.68Zm-5.56-.93a.57.57,0,0,0-.2-.39l-.15-.15a.55.55,0,0,0-.39-.19H3.71a.58.58,0,0,0-.58.58V8.79a.53.53,0,0,0,.17.41.54.54,0,0,0,.41.18H15a.62.62,0,0,0,.59-.59ZM10.94,18.75a3,3,0,0,0,2.22-.9,3.2,3.2,0,0,0,0-4.45,3,3,0,0,0-2.22-.9,3.09,3.09,0,0,0-3.13,3.13,3.09,3.09,0,0,0,3.13,3.12Z"/></g></g></svg>