<svg xmlns="http://www.w3.org/2000/svg" viewBox="0 0 20.9 21.78"><title>gear-icon</title><g id="Layer_2"><g id="Layer_1-2"><path class="cls-1" d="M20.83,13.4a1.06,1.06,0,0,0-.51-.57L19,12a9.49,9.49,0,0,0,0-2.26L20.3,9a1.09,1.09,0,0,0,.53-.59,1.23,1.23,0,0,0,0-.74,11,11,0,0,0-2.43-4.15,1.35,1.35,0,0,0-.58-.33,1.15,1.15,0,0,0-.8.11l-1.37.82A8.58,8.58,0,0,0,13.73,3V1.37A1.17,1.17,0,0,0,13.51.7a1.11,1.11,0,0,0-.65-.44A11.13,11.13,0,0,0,8,.27,1,1,0,0,0,7.4.7a1.1,1.1,0,0,0-.22.67V3a8.65,8.65,0,0,0-2,1.12l-1.4-.84a1.13,1.13,0,0,0-.76-.09,1.32,1.32,0,0,0-.6.35A10.81,10.81,0,0,0,0,7.67a1.15,1.15,0,0,0,0,.71,1,1,0,0,0,.49.56L2,9.76A9.49,9.49,0,0,0,2,12l-1.34.79a1.06,1.06,0,0,0-.53.59,1.16,1.16,0,0,0,0,.74,10.78,10.78,0,0,0,2.43,4.15,1.29,1.29,0,0,0,.58.33,1.16,1.16,0,0,0,.8-.11l1.36-.82a8.65,8.65,0,0,0,2,1.12v1.6a1.1,1.1,0,0,0,.22.67,1.09,1.09,0,0,0,.64.44,11.55,11.55,0,0,0,2.41.26,11.17,11.17,0,0,0,2.43-.27,1.06,1.06,0,0,0,.63-.43,1.17,1.17,0,0,0,.22-.67v-1.6a8.58,8.58,0,0,0,1.95-1.12l1.41.84a1.12,1.12,0,0,0,.76.09,1.37,1.37,0,0,0,.6-.35,11.07,11.07,0,0,0,2.42-4.16A1.23,1.23,0,0,0,20.83,13.4Zm-7.6.27a3.91,3.91,0,0,1-5.56,0,3.79,3.79,0,0,1-1.15-2.78A3.94,3.94,0,0,1,10.45,7a3.78,3.78,0,0,1,2.78,1.16,3.91,3.91,0,0,1,0,5.56Z"/></g></g></svg>