<svg xmlns="http://www.w3.org/2000/svg" viewBox="0 0 20.9 21.78"><defs><style>.cls-1{fill:#979797;}</style></defs><title>settings-icon</title><g id="Layer_2" data-name="Layer 2"><g id="Layer_1-2" data-name="Layer 1"><path class="cls-1" d="M10.45,21.78A11.55,11.55,0,0,1,8,21.52a1.09,1.09,0,0,1-.64-.44,1.1,1.1,0,0,1-.22-.67v-1.6a8.65,8.65,0,0,1-2-1.12l-1.36.82a1.16,1.16,0,0,1-.8.11,1.29,1.29,0,0,1-.58-.33A10.78,10.78,0,0,1,.05,14.14a1.16,1.16,0,0,1,0-.74,1.06,1.06,0,0,1,.53-.59L2,12A9.49,9.49,0,0,1,2,9.76L.57,8.94a1,1,0,0,1-.49-.56,1.15,1.15,0,0,1,0-.71A10.81,10.81,0,0,1,2.46,3.51a1.32,1.32,0,0,1,.6-.35,1.13,1.13,0,0,1,.76.09l1.4.84A8.65,8.65,0,0,1,7.18,3V1.37A1.1,1.1,0,0,1,7.4.7,1,1,0,0,1,8,.27a11.13,11.13,0,0,1,4.84,0,1.11,1.11,0,0,1,.65.44,1.17,1.17,0,0,1,.22.67V3a8.58,8.58,0,0,1,1.95,1.12l1.37-.82a1.15,1.15,0,0,1,.8-.11,1.35,1.35,0,0,1,.58.33,11,11,0,0,1,2.43,4.15,1.23,1.23,0,0,1,0,.74A1.09,1.09,0,0,1,20.3,9L19,9.76A9.49,9.49,0,0,1,19,12l1.36.81a1.06,1.06,0,0,1,.51.57,1.23,1.23,0,0,1,0,.71,11.07,11.07,0,0,1-2.42,4.16,1.37,1.37,0,0,1-.6.35,1.12,1.12,0,0,1-.76-.09l-1.41-.84a8.58,8.58,0,0,1-1.95,1.12v1.6a1.17,1.17,0,0,1-.22.67,1.06,1.06,0,0,1-.63.43A11.17,11.17,0,0,1,10.45,21.78Zm-2-1.46a9.92,9.92,0,0,0,4.06,0V17.94l.41-.15a7.28,7.28,0,0,0,2.33-1.33l.34-.29,2,1.2a9.65,9.65,0,0,0,2.05-3.5l-2-1.21.07-.43a8,8,0,0,0,0-2.68l-.07-.43L19.65,7.9a10.16,10.16,0,0,0-2.07-3.49l-2,1.2-.34-.29A7.28,7.28,0,0,0,12.89,4l-.41-.15V1.46a9.92,9.92,0,0,0-4.06,0V3.84L8,4A7.39,7.39,0,0,0,5.68,5.32l-.34.29-2-1.2a9.82,9.82,0,0,0-2.06,3.5L3.32,9.12l-.08.43a8,8,0,0,0,0,2.68l.08.43L1.26,13.88a9.85,9.85,0,0,0,2.07,3.49l2-1.2.34.29A7.39,7.39,0,0,0,8,17.79l.42.15ZM1.17,7.85h0Zm9.28,7a3.94,3.94,0,0,1-3.93-3.94A3.94,3.94,0,0,1,10.45,7a3.78,3.78,0,0,1,2.78,1.16,3.91,3.91,0,0,1,0,5.56A3.78,3.78,0,0,1,10.45,14.83Zm0-6.63a2.7,2.7,0,0,0-2.68,2.69,2.53,2.53,0,0,0,.79,1.9,2.67,2.67,0,0,0,3.79,0,2.68,2.68,0,0,0,0-3.8A2.57,2.57,0,0,0,10.45,8.2Z"/></g></g></svg>