<svg xmlns="http://www.w3.org/2000/svg" viewBox="0 0 206.58 236.09"><defs><style>.cls-1{fill:#e4a663;}</style></defs><title>trash-icon</title><g id="Layer_2"><g id="Layer_1-2"><path class="cls-1" d="M0,25.82A10.7,10.7,0,0,1,3.23,18a10.66,10.66,0,0,1,7.84-3.22H62.71L66.86,6A10.42,10.42,0,0,1,71,1.61,11.79,11.79,0,0,1,77,0h52.56a11.76,11.76,0,0,1,6,1.61A10.42,10.42,0,0,1,139.72,6l4.15,8.77h51.65a11,11,0,0,1,11.06,11.06V38.73a5.51,5.51,0,0,1-5.53,5.54H5.53a5.34,5.34,0,0,1-3.92-1.62A5.34,5.34,0,0,1,0,38.73ZM191.83,214a22,22,0,0,1-22.14,22.13H36.89a21.37,21.37,0,0,1-15.68-6.45A21.37,21.37,0,0,1,14.76,214V64.56A5.51,5.51,0,0,1,20.29,59h166a5.53,5.53,0,0,1,5.54,5.54ZM64.33,90.61a7.38,7.38,0,0,0-12.68,5.3V199.2a7.38,7.38,0,1,0,14.75,0V95.91A7.18,7.18,0,0,0,64.33,90.61Zm44.26,0a7.38,7.38,0,0,0-12.68,5.3V199.2a7.38,7.38,0,1,0,14.76,0V95.91A7.15,7.15,0,0,0,108.59,90.61Zm44.27,0a7.38,7.38,0,0,0-12.68,5.3V199.2a7.38,7.38,0,1,0,14.76,0V95.91A7.19,7.19,0,0,0,152.86,90.61Z"/></g></g></svg>