<svg xmlns="http://www.w3.org/2000/svg" viewBox="0 0 25.13 22.5"><title>warning-icon_1</title><g id="Layer_2"><g id="Layer_1-2"><path class="cls-1" d="M24.81,18.58l-10-17.26A2.44,2.44,0,0,0,13.45.15a2.66,2.66,0,0,0-1.76,0,2.46,2.46,0,0,0-1.41,1.17L.31,18.61A2.79,2.79,0,0,0,0,20.35a2.59,2.59,0,0,0,.87,1.52,2.49,2.49,0,0,0,1.7.63H22.52a2.47,2.47,0,0,0,1.7-.63,2.59,2.59,0,0,0,.87-1.52h0A2.72,2.72,0,0,0,24.81,18.58ZM14.23,7.31l-.44,7.49-2.44,0-.44-7.54Zm-.41,11.92a1.75,1.75,0,0,1-2.51,0,1.76,1.76,0,0,1,0-2.52h0a1.66,1.66,0,0,1,1.26-.53,1.69,1.69,0,0,1,1.26.53A1.71,1.71,0,0,1,14.35,18,1.69,1.69,0,0,1,13.82,19.23Z"/></g></g></svg>