<svg xmlns="http://www.w3.org/2000/svg" width="22" height="20" viewBox="0 0 22 20">
  <path fill="#9B9896" d="M18.5897305,20 C18.5894834,20 18.5894834,20 18.5897305,20 C18.2157274,20 17.8642041,19.8542568 17.6001293,19.5901899 L6.89213082,8.1570063 L4.16121696,10.8878387 C3.83834908,11.212179 3.2696866,11.2141552 2.94360733,10.8880857 L0.251724168,8.19603584 C-0.0832481698,7.86057945 -0.083989259,7.31466001 0.24999496,6.9789566 L5.11425772,2.11508605 L9.21149312,0.125567845 C9.58524913,-0.0777315688 10.0116225,-0.0298092282 10.2784146,0.237716003 L11.9357372,1.89548316 C12.0987768,2.0582709 12.1884486,2.27515655 12.1882016,2.50562842 C12.1879546,2.73585328 12.0977887,2.95224488 11.934255,3.11453858 L9.20507035,5.84413581 L20.6242675,16.5377344 C20.9031641,16.8158816 21.0489116,17.1671474 21.0489116,17.5411393 C21.0491586,17.9151312 20.9034111,18.266891 20.6385952,18.531205 L19.5795787,19.5904369 C19.3150098,19.8545038 18.9634865,20 18.5897305,20 Z M8.02377409,7.55822407 L18.4877072,18.7312931 C18.5133983,18.7564894 18.5586047,18.7648881 18.5897305,18.7648881 L18.5897305,18.7648881 C18.6208562,18.7648881 18.6663097,18.7564894 18.7063285,18.7167188 L19.765345,17.6574868 C19.8053639,17.6174692 19.8135158,17.5720171 19.8135158,17.5411393 C19.8135158,17.5102615 19.8053639,17.4650564 19.7655921,17.4255328 L8.60627024,6.97549829 L8.02377409,7.55822407 Z M1.38904913,7.58663164 L3.5520416,9.74980657 L10.7979182,2.50414629 L9.60278824,1.308558 L5.84077221,3.13528846 L1.38904913,7.58663164 Z"/>
</svg>
