<svg xmlns="http://www.w3.org/2000/svg" width="23" height="19" viewBox="0 0 23 19">
  <path fill="#9B9896" d="M8.16129032,0 C7.8476371,0.00822769744 7.61092258,0.216338142 7.50052258,0.392971357 L6.21370968,2.87430478 L2.51560645,2.87430478 C1.1339,2.87430478 0,3.97898275 0,5.32195495 L0,16.235313 C0,17.5783319 1.1339,18.6829991 2.51560645,18.6829991 L20.4843935,18.6829991 C21.8661,18.6829991 23,17.5783319 23,16.235313 L23,5.32195495 C23,3.97898275 21.8661,2.87430478 20.4843935,2.87430478 L16.7862903,2.87430478 L15.4994774,0.392971357 C15.3762419,0.158172992 15.1106661,0.000240723026 14.8387097,0 L8.16129032,0 Z M8.61342581,1.43715239 L14.3865742,1.43715239 L15.6618129,3.90725806 C15.781821,4.14619902 16.0482129,4.30914695 16.3225806,4.31145717 L20.4843935,4.31145717 C21.0674065,4.31145717 21.516129,4.7431023 21.516129,5.32195495 L21.516129,16.235313 C21.516129,16.8141979 21.0674065,17.2458467 20.4843935,17.2458467 L2.51560645,17.2458467 C1.93259355,17.2458467 1.48387097,16.8141979 1.48387097,16.235313 L1.48387097,5.32195495 C1.48387097,4.7431023 1.93259355,4.31145717 2.51560645,4.31145717 L6.67741935,4.31145717 C6.9517871,4.30930145 7.21817903,4.14619902 7.3381871,3.90725806 L8.61342581,1.43715239 Z M11.5,6.10789766 C8.84539194,6.10789766 6.67741935,8.20757731 6.67741935,10.7786609 C6.67741935,13.3496906 8.84539194,15.4493702 11.5,15.4493702 C14.1546823,15.4493702 16.3225806,13.3496906 16.3225806,10.7786609 C16.3225806,8.20757731 14.1546823,6.10789766 11.5,6.10789766 Z M11.5,7.54505006 C13.3527242,7.54505006 14.8387097,8.98426835 14.8387097,10.7786609 C14.8387097,12.5730175 13.3527242,14.0122179 11.5,14.0122179 C9.64735,14.0122179 8.16129032,12.5730175 8.16129032,10.7786609 C8.16129032,8.98426835 9.64735,7.54505006 11.5,7.54505006 Z"/>
</svg>
